<svg version="1.0" xmlns="http://www.w3.org/2000/svg"
 width="538.000000pt" height="376.000000pt" viewBox="0 0 538.000000 376.000000"
 preserveAspectRatio="xMidYMid meet">

<g transform="translate(0.000000,376.000000) scale(0.100000,-0.100000)"
fill="lightgray" stroke="none">
<path d="M1632 3744 c-18 -12 -20 -19 -12 -29 7 -8 8 -19 5 -26 -15 -24 -1
-894 15 -919 5 -9 19 -8 56 5 27 9 105 23 173 31 212 25 395 -8 599 -108 l103
-51 132 129 c72 71 142 140 155 154 78 81 459 464 626 629 108 107 196 196
196 198 0 1 -456 3 -1013 3 -909 0 -1015 -2 -1035 -16z"/>
<path d="M3955 3733 c-3 -15 -36 -56 -73 -90 -37 -35 -454 -450 -927 -923
l-861 -860 651 -648 c825 -823 1151 -1146 1194 -1183 l34 -29 700 0 c665 0
699 1 686 18 -7 9 -19 22 -25 28 -85 73 -1834 1822 -1832 1832 2 7 424 434
937 948 l935 934 -706 0 -706 0 -7 -27z" fill="green"/>
<path d="M1475 3705 c-5 -1 -39 -11 -73 -21 -49 -13 -66 -23 -73 -41 -9 -25
-14 -1042 -4 -1051 5 -5 138 83 155 102 4 6 9 234 11 506 1 344 5 497 13 502
11 8 -8 10 -29 3z" fill="green"/>
<path d="M998 3510 c-70 -38 -154 -87 -187 -109 -226 -154 -439 -395 -584
-661 -84 -152 -165 -405 -187 -580 -28 -227 -22 -503 16 -685 8 -38 20 -97 26
-130 15 -87 30 -111 75 -120 50 -9 1073 -2 1080 8 2 4 -21 43 -53 88 -63 90
-115 204 -147 324 -17 65 -21 110 -22 240 0 191 15 255 101 433 l54 112 0 559
c0 308 -3 566 -6 575 -10 26 -32 19 -166 -54z"/>
<path d="M180 1109 c0 -24 72 -161 137 -263 103 -160 252 -321 423 -459 183
-147 460 -283 690 -337 19 -5 62 -16 95 -26 55 -16 138 -18 965 -21 498 -2
967 -2 1043 -1 l139 3 -492 490 c-271 270 -517 516 -548 548 -30 31 -63 57
-73 57 -9 0 -52 -18 -95 -40 -121 -61 -291 -102 -448 -108 -135 -5 -177 1
-321 43 -44 12 -91 25 -105 29 -14 3 -61 27 -105 53 l-80 48 -612 3 -613 3 0
-22z"/>
</g>
</svg>