<svg version="1.0" xmlns="http://www.w3.org/2000/svg"
 width="3228.000000pt" height="567.000000pt" viewBox="0 0 3228.000000 567.000000"
 preserveAspectRatio="xMidYMid meet">

<g transform="translate(0.000000,567.000000) scale(0.100000,-0.100000)"
fill="lightgray" stroke="none">
<path d="M16276 5255 c-27 -1599 -110 -3673 -184 -4625 l-37 -475 571 0 572 0
6 44 c3 24 6 173 6 330 0 838 87 3066 170 4371 22 344 42 652 45 685 l6 60
-574 0 -574 0 -7 -390z" fill="green"/>
<path d="M1960 4333 c-268 -26 -480 -65 -640 -119 -434 -145 -799 -472 -1005
-899 -333 -693 -353 -1630 -48 -2285 127 -273 373 -544 640 -704 491 -294
1252 -351 2204 -165 l116 23 17 120 c10 67 37 229 61 361 51 281 69 404 62
411 -2 3 -34 -6 -70 -20 -222 -83 -567 -154 -837 -171 -240 -15 -507 38 -715
143 -286 143 -434 351 -512 720 -25 117 -27 146 -27 367 -1 208 2 256 21 355
61 317 160 522 338 703 353 359 911 432 1670 217 77 -22 167 -49 199 -60 33
-11 61 -18 64 -16 4 5 -44 745 -54 828 -7 57 10 50 -274 108 -336 68 -580 91
-939 88 -130 0 -252 -3 -271 -5z"/>
<path d="M9965 4329 c-176 -12 -388 -37 -575 -65 -251 -38 -761 -142 -777
-157 -6 -6 -23 -114 -57 -362 -10 -66 -28 -180 -42 -254 -13 -73 -23 -135 -21
-137 2 -2 43 12 93 32 266 104 654 213 924 258 803 135 1258 17 1321 -342 22
-126 -26 -256 -135 -364 -118 -116 -297 -182 -810 -299 -921 -209 -1302 -365
-1605 -655 -125 -119 -201 -227 -261 -370 -113 -273 -105 -569 26 -882 168
-401 475 -597 1044 -663 128 -15 538 -15 675 0 55 6 170 21 256 33 l157 22 57
215 c31 119 76 274 99 344 32 98 38 127 26 123 -254 -86 -478 -122 -695 -113
-244 11 -387 61 -501 174 -193 193 -186 492 15 694 161 162 334 238 911 404
411 118 490 149 663 257 43 27 81 47 85 44 14 -14 -79 -1603 -113 -1935 -8
-79 -15 -151 -15 -160 0 -15 51 -16 570 -16 l570 0 0 105 c0 455 35 1227 99
2230 49 746 49 910 0 1096 -103 399 -468 637 -1119 730 -135 19 -673 28 -865
13z"/>
<path d="M14990 4325 c-342 -56 -589 -212 -817 -512 -47 -62 -88 -113 -91
-113 -2 0 -1 123 3 273 l7 272 -545 0 -546 0 0 -475 c0 -537 -23 -1463 -46
-1860 -9 -146 -36 -591 -60 -989 -25 -398 -45 -733 -45 -745 l0 -21 580 0 581
0 -7 40 c-11 60 -7 970 5 1280 28 698 60 980 133 1199 100 299 301 536 554
653 208 95 496 114 782 49 l102 -23 0 33 c0 19 -5 111 -11 206 -5 95 -13 294
-17 443 l-7 269 -60 14 c-91 20 -392 24 -495 7z"/>
<path d="M22545 4334 c-523 -55 -980 -225 -1319 -491 -154 -121 -347 -343
-447 -514 -139 -239 -239 -531 -286 -839 -25 -163 -25 -561 0 -715 111 -691
470 -1199 1041 -1475 688 -333 1664 -326 2347 16 308 154 569 397 764 714 161
261 285 629 327 975 16 132 15 466 -1 585 -51 375 -167 689 -349 944 -69 97
-212 248 -307 326 -277 226 -658 383 -1098 452 -101 15 -191 21 -382 23 -137
2 -268 1 -290 -1z m452 -839 c199 -32 374 -118 516 -254 160 -153 249 -339
303 -636 25 -138 25 -473 0 -634 -77 -495 -290 -836 -621 -996 -368 -179 -836
-147 -1140 77 -283 209 -418 513 -432 974 -9 288 17 476 96 714 64 190 141
326 254 446 145 156 365 270 589 308 112 19 322 19 435 1z"/>
<path d="M28060 4330 c-198 -28 -389 -84 -543 -161 -207 -103 -335 -215 -498
-433 -51 -69 -94 -124 -95 -123 -1 1 4 124 12 272 7 149 13 290 14 315 l0 45
-545 0 -545 0 0 -238 c0 -363 -24 -1070 -70 -2042 -35 -733 -91 -1684 -105
-1775 l-6 -35 574 0 573 0 12 450 c35 1279 91 1922 194 2215 119 338 360 571
646 626 233 44 439 -12 578 -158 80 -84 125 -165 157 -275 20 -74 22 -97 21
-413 -1 -311 -11 -565 -49 -1255 -25 -440 -55 -932 -65 -1050 -6 -60 -10 -117
-10 -125 0 -13 71 -15 575 -15 l575 0 0 40 c0 138 32 1258 40 1440 46 963 105
1238 325 1520 163 210 358 305 620 305 190 0 358 -66 463 -181 132 -146 170
-316 158 -704 -12 -392 -112 -2183 -131 -2365 l-6 -55 574 0 574 0 6 305 c10
475 60 1542 97 2100 43 641 44 805 5 976 -54 232 -195 437 -395 571 -359 242
-994 304 -1490 147 -299 -94 -532 -271 -718 -546 -36 -54 -68 -98 -72 -98 -3
0 -25 43 -50 96 -58 127 -108 204 -189 287 -150 156 -351 258 -629 318 -76 16
-142 21 -307 24 -115 2 -239 0 -275 -5z"/>
<path d="M4266 3950 c-4 -162 -11 -344 -15 -405 -4 -60 -8 -111 -7 -112 1 -1
105 4 231 12 346 21 1020 37 1381 33 l320 -3 -314 -355 c-173 -195 -618 -699
-990 -1120 -371 -421 -717 -808 -767 -860 l-93 -95 -11 -410 c-6 -226 -11
-426 -11 -445 l0 -35 1634 0 1635 0 5 70 c3 39 11 154 17 257 6 103 16 247 23
320 7 73 11 135 10 137 -2 2 -131 -2 -286 -8 -316 -13 -1350 -16 -1592 -5
l-158 7 75 76 c41 42 512 564 1047 1161 535 597 983 1096 996 1111 23 24 24
34 34 255 18 421 31 669 35 689 4 20 -1 20 -1594 20 l-1598 0 -7 -295z"/>
<path d="M18654 4085 c-231 -310 -474 -615 -892 -1124 -248 -300 -421 -519
-418 -527 14 -36 248 -381 601 -884 410 -585 522 -753 766 -1150 l151 -245
632 0 632 0 -156 210 c-655 881 -1463 2021 -1464 2066 -1 28 207 275 884 1049
353 404 648 742 655 750 12 13 -59 15 -629 15 l-643 0 -119 -160z" fill="green"/>
</g>
</svg>
